# xmcd
#
# Track frame offsets: 
#        150
#        11532
#        25542
#        45967
#        58905
#        69132
#        82330
#        101585
#        116365
#        137202
#
# Disc length: 1981 seconds
#
# Revision: 5
# Processed by: cddbd v1.5.1PL0 Copyright (c) Steve Scherf et al.
# Submitted via: ExactAudioCopy v0.95a5
#
DISCID=7907bb0a
DTITLE=Various Artist - Jazz Collection- Blues Men- CD1- All Them Blu
DTITLE=es- You Ain't No Big Thing (Disk 1 of 2)
DYEAR=2002
DGENRE=Blues
TTITLE0=Elmore James - Rollin' and Tumblin'
TTITLE1=Memphis Slim - Messin's Around With the Blues
TTITLE2=Lightnin' Hopkins - Lightnin's Love
TTITLE3=Jimmy Reed - You Got Me Dizzy
TTITLE4=Arthur "Big Boy" Crudup - Standin' At My Window
TTITLE5=Howlin' Wolf - Worried About You Baby
TTITLE6=John Lee Hooker - You Ain't No Big Thing
TTITLE7=Muddy Waters - One More Mile
TTITLE8=Big Bill Broozy - Rock Me Baby
TTITLE9=Elmore James - Fine Little Mama
EXTD=LABEL =Delta Entertainment Corporation\nID =76010 (Disk #1 =17
EXTD=242 - Disk # 2 =17241]\nUPC =018111-761024\nCOPYRIGHT =2002 (Di
EXTD=sk #1 =2001 - Disk # 2 =2001]\n*****\nYEAR: 2001
EXTT0=
EXTT1=
EXTT2=
EXTT3=
EXTT4=
EXTT5=
EXTT6=
EXTT7=
EXTT8=
EXTT9=
PLAYORDER=
